<svg xmlns="http://www.w3.org/2000/svg" xmlns:xlink="http://www.w3.org/1999/xlink" width="1080" zoomAndPan="magnify" viewBox="0 0 810 809.999993" height="1080" preserveAspectRatio="xMidYMid meet" version="1.2"><defs/><g id="14c9df8f5a"><path style=" stroke:none;fill-rule:nonzero;fill:#d65c5c;fill-opacity:1;" d="M 656.238281 387.636719 C 654.621094 394.910156 651.8125 402.097656 649.535156 408.886719 C 644.710938 423.277344 639.414062 437.515625 632.871094 451.21875 C 623.621094 470.59375 592.917969 455.160156 599.394531 435.710938 C 601.460938 429.53125 603.886719 423.449219 606.472656 417.417969 C 485.039062 502.402344 301.714844 500.960938 193.925781 394.597656 C 187.222656 387.984375 196.511719 377.574219 204.160156 382.25 C 265.117188 419.484375 333.636719 445.335938 405.800781 444.839844 C 472.378906 444.378906 533.5625 421.421875 587.519531 384.453125 C 571.117188 381.640625 554.851562 378.074219 538.886719 373.582031 C 530.144531 371.121094 529.917969 356.296875 539.53125 355.003906 C 574.636719 350.253906 610.289062 349.410156 645.644531 351.945312 C 667.109375 353.476562 667.902344 378.097656 656.238281 387.636719 Z M 656.238281 387.636719 "/><g style="fill:#d65c5c;fill-opacity:1;"><g transform="translate(0.0000035, 599.24999)"><path style="stroke:none" d="M 53.703125 -106.578125 C 61.148438 -106.578125 67.484375 -105.585938 72.703125 -103.609375 C 77.929688 -101.640625 82.722656 -98.851562 87.078125 -95.25 L 75 -80.703125 C 72.144531 -83.046875 68.992188 -84.90625 65.546875 -86.28125 C 62.097656 -87.65625 58.347656 -88.34375 54.296875 -88.34375 C 49.953125 -88.34375 45.976562 -87.101562 42.375 -84.625 C 38.769531 -82.15625 35.894531 -78.257812 33.75 -72.9375 C 31.601562 -67.613281 30.53125 -60.703125 30.53125 -52.203125 C 30.53125 -43.847656 31.566406 -37.03125 33.640625 -31.75 C 35.710938 -26.476562 38.570312 -22.601562 42.21875 -20.125 C 45.875 -17.65625 50.050781 -16.421875 54.75 -16.421875 C 59.945312 -16.421875 64.269531 -17.394531 67.71875 -19.34375 C 71.175781 -21.300781 74.351562 -23.425781 77.25 -25.71875 L 88.421875 -11.46875 C 84.523438 -7.625 79.722656 -4.328125 74.015625 -1.578125 C 68.316406 1.171875 61.445312 2.546875 53.40625 2.546875 C 44 2.546875 35.65625 0.460938 28.375 -3.703125 C 21.101562 -7.878906 15.40625 -14.03125 11.28125 -22.15625 C 7.15625 -30.28125 5.09375 -40.296875 5.09375 -52.203125 C 5.09375 -63.796875 7.226562 -73.644531 11.5 -81.75 C 15.78125 -89.851562 21.59375 -96.015625 28.9375 -100.234375 C 36.289062 -104.460938 44.546875 -106.578125 53.703125 -106.578125 Z M 53.703125 -106.578125 "/></g></g><g style="fill:#d65c5c;fill-opacity:1;"><g transform="translate(89.999919, 599.24999)"><path style="stroke:none" d="M 45 -82.28125 C 53.195312 -82.28125 60.171875 -80.53125 65.921875 -77.03125 C 71.671875 -73.53125 76.070312 -68.613281 79.125 -62.28125 C 82.175781 -55.957031 83.703125 -48.546875 83.703125 -40.046875 C 83.703125 -31.203125 82.160156 -23.59375 79.078125 -17.21875 C 76.003906 -10.84375 71.59375 -5.953125 65.84375 -2.546875 C 60.09375 0.847656 53.144531 2.546875 45 2.546875 C 36.894531 2.546875 29.957031 0.875 24.1875 -2.46875 C 18.414062 -5.820312 13.988281 -10.671875 10.90625 -17.015625 C 7.832031 -23.367188 6.296875 -31 6.296875 -39.90625 C 6.296875 -48.351562 7.832031 -55.75 10.90625 -62.09375 C 13.988281 -68.445312 18.414062 -73.398438 24.1875 -76.953125 C 29.957031 -80.503906 36.894531 -82.28125 45 -82.28125 Z M 45 -64.796875 C 40.144531 -64.796875 36.554688 -62.804688 34.234375 -58.828125 C 31.910156 -54.859375 30.75 -48.550781 30.75 -39.90625 C 30.75 -31.101562 31.910156 -24.722656 34.234375 -20.765625 C 36.554688 -16.816406 40.144531 -14.84375 45 -14.84375 C 49.851562 -14.84375 53.441406 -16.816406 55.765625 -20.765625 C 58.085938 -24.722656 59.25 -31.148438 59.25 -40.046875 C 59.25 -48.648438 58.085938 -54.925781 55.765625 -58.875 C 53.441406 -62.820312 49.851562 -64.796875 45 -64.796875 Z M 45 -64.796875 "/></g></g><g style="fill:#d65c5c;fill-opacity:1;"><g transform="translate(179.999834, 599.24999)"><path style="stroke:none" d="M 10.5 0 L 10.5 -79.65625 L 31.203125 -79.65625 L 32.84375 -70.421875 C 36.394531 -74.421875 40.144531 -77.394531 44.09375 -79.34375 C 48.050781 -81.300781 52.550781 -82.28125 57.59375 -82.28125 C 64.394531 -82.28125 69.742188 -80.203125 73.640625 -76.046875 C 77.546875 -71.898438 79.5 -66.050781 79.5 -58.5 L 79.5 0 L 55.796875 0 L 55.796875 -51.671875 C 55.796875 -54.921875 55.570312 -57.507812 55.125 -59.4375 C 54.675781 -61.363281 53.890625 -62.738281 52.765625 -63.5625 C 51.640625 -64.382812 50.101562 -64.796875 48.15625 -64.796875 C 46.5 -64.796875 44.882812 -64.429688 43.3125 -63.703125 C 41.738281 -62.984375 40.203125 -61.945312 38.703125 -60.59375 C 37.203125 -59.25 35.703125 -57.625 34.203125 -55.71875 L 34.203125 0 Z M 10.5 0 "/></g></g><g style="fill:#d65c5c;fill-opacity:1;"><g transform="translate(269.99976, 599.24999)"><path style="stroke:none" d="M 85.65625 -79.65625 L 59.09375 0 L 31.203125 0 L 4.34375 -79.65625 L 29.921875 -79.65625 L 45.453125 -18.15625 L 61.65625 -79.65625 Z M 85.65625 -79.65625 "/></g></g><g style="fill:#d65c5c;fill-opacity:1;"><g transform="translate(359.999664, 599.24999)"><path style="stroke:none" d="M 31.046875 -32.921875 C 31.597656 -28.578125 32.734375 -25.066406 34.453125 -22.390625 C 36.179688 -19.710938 38.394531 -17.757812 41.09375 -16.53125 C 43.800781 -15.3125 46.828125 -14.703125 50.171875 -14.703125 C 53.828125 -14.703125 57.351562 -15.300781 60.75 -16.5 C 64.144531 -17.695312 67.421875 -19.296875 70.578125 -21.296875 L 80.09375 -8.40625 C 76.34375 -5.195312 71.804688 -2.566406 66.484375 -0.515625 C 61.160156 1.523438 55.097656 2.546875 48.296875 2.546875 C 39.203125 2.546875 31.578125 0.734375 25.421875 -2.890625 C 19.273438 -6.515625 14.648438 -11.5 11.546875 -17.84375 C 8.453125 -24.195312 6.90625 -31.5 6.90625 -39.75 C 6.90625 -47.601562 8.40625 -54.738281 11.40625 -61.15625 C 14.40625 -67.582031 18.789062 -72.707031 24.5625 -76.53125 C 30.332031 -80.363281 37.394531 -82.28125 45.75 -82.28125 C 53.351562 -82.28125 59.941406 -80.65625 65.515625 -77.40625 C 71.085938 -74.15625 75.410156 -69.476562 78.484375 -63.375 C 81.554688 -57.269531 83.09375 -49.945312 83.09375 -41.40625 C 83.09375 -40.050781 83.054688 -38.597656 82.984375 -37.046875 C 82.910156 -35.492188 82.800781 -34.117188 82.65625 -32.921875 Z M 45.75 -66.375 C 41.5 -66.375 38.070312 -64.847656 35.46875 -61.796875 C 32.875 -58.742188 31.300781 -53.867188 30.75 -47.171875 L 60 -47.171875 C 59.945312 -52.972656 58.820312 -57.625 56.625 -61.125 C 54.425781 -64.625 50.800781 -66.375 45.75 -66.375 Z M 45.75 -66.375 "/></g></g><g style="fill:#d65c5c;fill-opacity:1;"><g transform="translate(449.999568, 599.24999)"><path style="stroke:none" d="M 11.25 0 L 11.25 -15.90625 L 21.75 -15.90625 L 21.75 -63.90625 L 11.25 -63.90625 L 11.25 -79.65625 L 39.828125 -79.65625 L 44.171875 -61.71875 C 47.023438 -68.570312 50.660156 -73.671875 55.078125 -77.015625 C 59.503906 -80.367188 64.921875 -82.046875 71.328125 -82.046875 C 74.023438 -82.046875 76.421875 -81.832031 78.515625 -81.40625 C 80.617188 -80.988281 82.597656 -80.40625 84.453125 -79.65625 L 77.25 -60.078125 C 75.800781 -60.472656 74.347656 -60.769531 72.890625 -60.96875 C 71.441406 -61.175781 69.84375 -61.28125 68.09375 -61.28125 C 62.894531 -61.28125 58.332031 -59.15625 54.40625 -54.90625 C 50.488281 -50.65625 47.503906 -45.253906 45.453125 -38.703125 L 45.453125 -15.90625 L 61.203125 -15.90625 L 61.203125 0 Z M 65.171875 -46.34375 L 65.171875 -69.59375 L 68.703125 -79.65625 L 84.453125 -79.65625 L 80.03125 -46.34375 Z M 65.171875 -46.34375 "/></g></g><g style="fill:#d65c5c;fill-opacity:1;"><g transform="translate(539.999518, 599.24999)"><path style="stroke:none" d="M 82.203125 -4.65625 C 79.097656 -2.65625 75.34375 -0.957031 70.9375 0.4375 C 66.539062 1.84375 61.59375 2.546875 56.09375 2.546875 C 45.695312 2.546875 37.972656 -0.113281 32.921875 -5.4375 C 27.867188 -10.757812 25.34375 -18 25.34375 -27.15625 L 25.34375 -63.296875 L 8.625 -63.296875 L 8.625 -79.65625 L 25.34375 -79.65625 L 25.34375 -96.90625 L 49.046875 -99.75 L 49.046875 -79.65625 L 74.703125 -79.65625 L 72.375 -63.296875 L 49.046875 -63.296875 L 49.046875 -27.15625 C 49.046875 -23.195312 49.945312 -20.367188 51.75 -18.671875 C 53.550781 -16.972656 56.425781 -16.125 60.375 -16.125 C 63.175781 -16.125 65.738281 -16.460938 68.0625 -17.140625 C 70.382812 -17.816406 72.472656 -18.675781 74.328125 -19.71875 Z M 82.203125 -4.65625 "/></g></g><g style="fill:#d65c5c;fill-opacity:1;"><g transform="translate(629.999422, 599.24999)"><path style="stroke:none" d="M 31.046875 -32.921875 C 31.597656 -28.578125 32.734375 -25.066406 34.453125 -22.390625 C 36.179688 -19.710938 38.394531 -17.757812 41.09375 -16.53125 C 43.800781 -15.3125 46.828125 -14.703125 50.171875 -14.703125 C 53.828125 -14.703125 57.351562 -15.300781 60.75 -16.5 C 64.144531 -17.695312 67.421875 -19.296875 70.578125 -21.296875 L 80.09375 -8.40625 C 76.34375 -5.195312 71.804688 -2.566406 66.484375 -0.515625 C 61.160156 1.523438 55.097656 2.546875 48.296875 2.546875 C 39.203125 2.546875 31.578125 0.734375 25.421875 -2.890625 C 19.273438 -6.515625 14.648438 -11.5 11.546875 -17.84375 C 8.453125 -24.195312 6.90625 -31.5 6.90625 -39.75 C 6.90625 -47.601562 8.40625 -54.738281 11.40625 -61.15625 C 14.40625 -67.582031 18.789062 -72.707031 24.5625 -76.53125 C 30.332031 -80.363281 37.394531 -82.28125 45.75 -82.28125 C 53.351562 -82.28125 59.941406 -80.65625 65.515625 -77.40625 C 71.085938 -74.15625 75.410156 -69.476562 78.484375 -63.375 C 81.554688 -57.269531 83.09375 -49.945312 83.09375 -41.40625 C 83.09375 -40.050781 83.054688 -38.597656 82.984375 -37.046875 C 82.910156 -35.492188 82.800781 -34.117188 82.65625 -32.921875 Z M 45.75 -66.375 C 41.5 -66.375 38.070312 -64.847656 35.46875 -61.796875 C 32.875 -58.742188 31.300781 -53.867188 30.75 -47.171875 L 60 -47.171875 C 59.945312 -52.972656 58.820312 -57.625 56.625 -61.125 C 54.425781 -64.625 50.800781 -66.375 45.75 -66.375 Z M 45.75 -66.375 "/></g></g><g style="fill:#d65c5c;fill-opacity:1;"><g transform="translate(719.999326, 599.24999)"><path style="stroke:none" d="M 11.25 0 L 11.25 -15.90625 L 21.75 -15.90625 L 21.75 -63.90625 L 11.25 -63.90625 L 11.25 -79.65625 L 39.828125 -79.65625 L 44.171875 -61.71875 C 47.023438 -68.570312 50.660156 -73.671875 55.078125 -77.015625 C 59.503906 -80.367188 64.921875 -82.046875 71.328125 -82.046875 C 74.023438 -82.046875 76.421875 -81.832031 78.515625 -81.40625 C 80.617188 -80.988281 82.597656 -80.40625 84.453125 -79.65625 L 77.25 -60.078125 C 75.800781 -60.472656 74.347656 -60.769531 72.890625 -60.96875 C 71.441406 -61.175781 69.84375 -61.28125 68.09375 -61.28125 C 62.894531 -61.28125 58.332031 -59.15625 54.40625 -54.90625 C 50.488281 -50.65625 47.503906 -45.253906 45.453125 -38.703125 L 45.453125 -15.90625 L 61.203125 -15.90625 L 61.203125 0 Z M 65.171875 -46.34375 L 65.171875 -69.59375 L 68.703125 -79.65625 L 84.453125 -79.65625 L 80.03125 -46.34375 Z M 65.171875 -46.34375 "/></g></g><g style="fill:#d65c5c;fill-opacity:1;"><g transform="translate(134.999997, 769.499981)"><path style="stroke:none" d="M 86.625 -52.046875 C 86.625 -41.046875 85.046875 -31.457031 81.890625 -23.28125 C 78.742188 -15.113281 74.082031 -8.765625 67.90625 -4.234375 C 61.738281 0.285156 54.101562 2.546875 45 2.546875 C 35.945312 2.546875 28.320312 0.335938 22.125 -4.078125 C 15.925781 -8.503906 11.25 -14.789062 8.09375 -22.9375 C 4.945312 -31.09375 3.375 -40.796875 3.375 -52.046875 C 3.375 -63.046875 4.945312 -72.617188 8.09375 -80.765625 C 11.25 -88.921875 15.925781 -95.257812 22.125 -99.78125 C 28.320312 -104.3125 35.945312 -106.578125 45 -106.578125 C 54.101562 -106.578125 61.738281 -104.375 67.90625 -99.96875 C 74.082031 -95.570312 78.742188 -89.296875 81.890625 -81.140625 C 85.046875 -72.992188 86.625 -63.296875 86.625 -52.046875 Z M 61.421875 -52.046875 C 61.421875 -64.847656 60.144531 -74.148438 57.59375 -79.953125 C 55.050781 -85.753906 50.851562 -88.65625 45 -88.65625 C 39.144531 -88.65625 34.941406 -85.738281 32.390625 -79.90625 C 29.847656 -74.082031 28.578125 -64.796875 28.578125 -52.046875 C 28.578125 -39.242188 29.875 -29.941406 32.46875 -24.140625 C 35.070312 -18.347656 39.25 -15.453125 45 -15.453125 C 51 -15.453125 55.234375 -18.390625 57.703125 -24.265625 C 60.179688 -30.140625 61.421875 -39.398438 61.421875 -52.046875 Z M 61.421875 -52.046875 "/></g></g><g style="fill:#d65c5c;fill-opacity:1;"><g transform="translate(224.999912, 769.499981)"><path style="stroke:none" d="M 10.5 0 L 10.5 -79.65625 L 31.203125 -79.65625 L 32.84375 -70.421875 C 36.394531 -74.421875 40.144531 -77.394531 44.09375 -79.34375 C 48.050781 -81.300781 52.550781 -82.28125 57.59375 -82.28125 C 64.394531 -82.28125 69.742188 -80.203125 73.640625 -76.046875 C 77.546875 -71.898438 79.5 -66.050781 79.5 -58.5 L 79.5 0 L 55.796875 0 L 55.796875 -51.671875 C 55.796875 -54.921875 55.570312 -57.507812 55.125 -59.4375 C 54.675781 -61.363281 53.890625 -62.738281 52.765625 -63.5625 C 51.640625 -64.382812 50.101562 -64.796875 48.15625 -64.796875 C 46.5 -64.796875 44.882812 -64.429688 43.3125 -63.703125 C 41.738281 -62.984375 40.203125 -61.945312 38.703125 -60.59375 C 37.203125 -59.25 35.703125 -57.625 34.203125 -55.71875 L 34.203125 0 Z M 10.5 0 "/></g></g><g style="fill:#d65c5c;fill-opacity:1;"><g transform="translate(314.999827, 769.499981)"><path style="stroke:none" d="M 52.046875 -111.296875 L 52.046875 -25.046875 C 52.046875 -21.847656 52.957031 -19.5625 54.78125 -18.1875 C 56.613281 -16.8125 59.128906 -16.125 62.328125 -16.125 C 64.378906 -16.125 66.351562 -16.359375 68.25 -16.828125 C 70.144531 -17.304688 71.921875 -17.875 73.578125 -18.53125 L 79.28125 -2.703125 C 76.570312 -1.296875 73.316406 -0.0703125 69.515625 0.96875 C 65.722656 2.019531 61.300781 2.546875 56.25 2.546875 C 46.644531 2.546875 39.59375 -0.210938 35.09375 -5.734375 C 30.59375 -11.265625 28.34375 -18.675781 28.34375 -27.96875 L 28.34375 -95.09375 L 4.875 -95.09375 L 4.875 -111.296875 Z M 52.046875 -111.296875 "/></g></g><g style="fill:#d65c5c;fill-opacity:1;"><g transform="translate(404.999754, 769.499981)"><path style="stroke:none" d="M 59.171875 -79.65625 L 59.171875 -16.203125 L 79.421875 -16.203125 L 79.421875 0 L 12.90625 0 L 12.90625 -16.203125 L 35.46875 -16.203125 L 35.46875 -63.453125 L 13.65625 -63.453125 L 13.65625 -79.65625 Z M 44.84375 -121.34375 C 48.945312 -121.34375 52.296875 -120.066406 54.890625 -117.515625 C 57.492188 -114.972656 58.796875 -111.800781 58.796875 -108 C 58.796875 -104.195312 57.492188 -101.007812 54.890625 -98.4375 C 52.296875 -95.863281 48.945312 -94.578125 44.84375 -94.578125 C 40.695312 -94.578125 37.3125 -95.863281 34.6875 -98.4375 C 32.0625 -101.007812 30.75 -104.195312 30.75 -108 C 30.75 -111.800781 32.0625 -114.972656 34.6875 -117.515625 C 37.3125 -120.066406 40.695312 -121.34375 44.84375 -121.34375 Z M 44.84375 -121.34375 "/></g></g><g style="fill:#d65c5c;fill-opacity:1;"><g transform="translate(494.999658, 769.499981)"><path style="stroke:none" d="M 10.5 0 L 10.5 -79.65625 L 31.203125 -79.65625 L 32.84375 -70.421875 C 36.394531 -74.421875 40.144531 -77.394531 44.09375 -79.34375 C 48.050781 -81.300781 52.550781 -82.28125 57.59375 -82.28125 C 64.394531 -82.28125 69.742188 -80.203125 73.640625 -76.046875 C 77.546875 -71.898438 79.5 -66.050781 79.5 -58.5 L 79.5 0 L 55.796875 0 L 55.796875 -51.671875 C 55.796875 -54.921875 55.570312 -57.507812 55.125 -59.4375 C 54.675781 -61.363281 53.890625 -62.738281 52.765625 -63.5625 C 51.640625 -64.382812 50.101562 -64.796875 48.15625 -64.796875 C 46.5 -64.796875 44.882812 -64.429688 43.3125 -63.703125 C 41.738281 -62.984375 40.203125 -61.945312 38.703125 -60.59375 C 37.203125 -59.25 35.703125 -57.625 34.203125 -55.71875 L 34.203125 0 Z M 10.5 0 "/></g></g><g style="fill:#d65c5c;fill-opacity:1;"><g transform="translate(584.999562, 769.499981)"><path style="stroke:none" d="M 31.046875 -32.921875 C 31.597656 -28.578125 32.734375 -25.066406 34.453125 -22.390625 C 36.179688 -19.710938 38.394531 -17.757812 41.09375 -16.53125 C 43.800781 -15.3125 46.828125 -14.703125 50.171875 -14.703125 C 53.828125 -14.703125 57.351562 -15.300781 60.75 -16.5 C 64.144531 -17.695312 67.421875 -19.296875 70.578125 -21.296875 L 80.09375 -8.40625 C 76.34375 -5.195312 71.804688 -2.566406 66.484375 -0.515625 C 61.160156 1.523438 55.097656 2.546875 48.296875 2.546875 C 39.203125 2.546875 31.578125 0.734375 25.421875 -2.890625 C 19.273438 -6.515625 14.648438 -11.5 11.546875 -17.84375 C 8.453125 -24.195312 6.90625 -31.5 6.90625 -39.75 C 6.90625 -47.601562 8.40625 -54.738281 11.40625 -61.15625 C 14.40625 -67.582031 18.789062 -72.707031 24.5625 -76.53125 C 30.332031 -80.363281 37.394531 -82.28125 45.75 -82.28125 C 53.351562 -82.28125 59.941406 -80.65625 65.515625 -77.40625 C 71.085938 -74.15625 75.410156 -69.476562 78.484375 -63.375 C 81.554688 -57.269531 83.09375 -49.945312 83.09375 -41.40625 C 83.09375 -40.050781 83.054688 -38.597656 82.984375 -37.046875 C 82.910156 -35.492188 82.800781 -34.117188 82.65625 -32.921875 Z M 45.75 -66.375 C 41.5 -66.375 38.070312 -64.847656 35.46875 -61.796875 C 32.875 -58.742188 31.300781 -53.867188 30.75 -47.171875 L 60 -47.171875 C 59.945312 -52.972656 58.820312 -57.625 56.625 -61.125 C 54.425781 -64.625 50.800781 -66.375 45.75 -66.375 Z M 45.75 -66.375 "/></g></g><g style="fill:#d65c5c;fill-opacity:1;"><g transform="translate(34.000981, 311.700386)"><path style="stroke:none" d="M 75.875 -124.734375 L 75.875 -3.59375 L 48.15625 -3.59375 L 48.15625 -96.75 L 22.5 -80.734375 L 10.4375 -100.265625 L 50.671875 -124.734375 Z M 99.1875 -21.515625 L 99.1875 0 L 18.09375 0 L 18.09375 -21.515625 Z M 99.1875 -21.515625 "/></g></g><g style="fill:#d65c5c;fill-opacity:1;"><g transform="translate(142.000873, 311.700386)"><path style="stroke:none" d="M 54 -127.890625 C 68.875 -127.890625 80.109375 -122.144531 87.703125 -110.65625 C 95.296875 -99.164062 99.09375 -83.160156 99.09375 -62.640625 C 99.09375 -42.054688 95.296875 -25.957031 87.703125 -14.34375 C 80.109375 -2.738281 68.875 3.0625 54 3.0625 C 39 3.0625 27.734375 -2.738281 20.203125 -14.34375 C 12.671875 -25.957031 8.90625 -42.054688 8.90625 -62.640625 C 8.90625 -83.160156 12.671875 -99.164062 20.203125 -110.65625 C 27.734375 -122.144531 39 -127.890625 54 -127.890625 Z M 54 -107.28125 C 47.632812 -107.28125 42.984375 -103.875 40.046875 -97.0625 C 37.109375 -90.25 35.640625 -78.773438 35.640625 -62.640625 C 35.640625 -50.160156 36.175781 -40.679688 37.25 -34.203125 C 38.332031 -27.722656 40.207031 -23.3125 42.875 -20.96875 C 45.550781 -18.625 49.257812 -17.453125 54 -17.453125 C 58.257812 -17.453125 61.722656 -18.890625 64.390625 -21.765625 C 67.066406 -24.648438 69.035156 -29.40625 70.296875 -36.03125 C 71.554688 -42.664062 72.1875 -51.535156 72.1875 -62.640625 C 72.1875 -74.878906 71.644531 -84.207031 70.5625 -90.625 C 69.476562 -97.050781 67.628906 -101.429688 65.015625 -103.765625 C 62.410156 -106.109375 58.738281 -107.28125 54 -107.28125 Z M 68.125 -103.3125 L 75.421875 -87.75 L 42.125 -18.984375 L 33.9375 -31.765625 Z M 68.125 -103.3125 "/></g></g><g style="fill:#d65c5c;fill-opacity:1;"><g transform="translate(250.000764, 311.700386)"><path style="stroke:none" d="M 54 -127.890625 C 68.875 -127.890625 80.109375 -122.144531 87.703125 -110.65625 C 95.296875 -99.164062 99.09375 -83.160156 99.09375 -62.640625 C 99.09375 -42.054688 95.296875 -25.957031 87.703125 -14.34375 C 80.109375 -2.738281 68.875 3.0625 54 3.0625 C 39 3.0625 27.734375 -2.738281 20.203125 -14.34375 C 12.671875 -25.957031 8.90625 -42.054688 8.90625 -62.640625 C 8.90625 -83.160156 12.671875 -99.164062 20.203125 -110.65625 C 27.734375 -122.144531 39 -127.890625 54 -127.890625 Z M 54 -107.28125 C 47.632812 -107.28125 42.984375 -103.875 40.046875 -97.0625 C 37.109375 -90.25 35.640625 -78.773438 35.640625 -62.640625 C 35.640625 -50.160156 36.175781 -40.679688 37.25 -34.203125 C 38.332031 -27.722656 40.207031 -23.3125 42.875 -20.96875 C 45.550781 -18.625 49.257812 -17.453125 54 -17.453125 C 58.257812 -17.453125 61.722656 -18.890625 64.390625 -21.765625 C 67.066406 -24.648438 69.035156 -29.40625 70.296875 -36.03125 C 71.554688 -42.664062 72.1875 -51.535156 72.1875 -62.640625 C 72.1875 -74.878906 71.644531 -84.207031 70.5625 -90.625 C 69.476562 -97.050781 67.628906 -101.429688 65.015625 -103.765625 C 62.410156 -106.109375 58.738281 -107.28125 54 -107.28125 Z M 68.125 -103.3125 L 75.421875 -87.75 L 42.125 -18.984375 L 33.9375 -31.765625 Z M 68.125 -103.3125 "/></g></g><g style="fill:#d65c5c;fill-opacity:1;"><g transform="translate(468.748468, 300.970946)"><path style="stroke:none" d="M 49.6875 -127.890625 C 59.164062 -127.890625 67.097656 -126.238281 73.484375 -122.9375 C 79.867188 -119.632812 84.664062 -115.269531 87.875 -109.84375 C 91.09375 -104.414062 92.703125 -98.519531 92.703125 -92.15625 C 92.703125 -87.113281 91.84375 -82.175781 90.125 -77.34375 C 88.414062 -72.519531 85.613281 -67.421875 81.71875 -62.046875 C 77.820312 -56.679688 72.644531 -50.726562 66.1875 -44.1875 C 59.738281 -37.644531 51.773438 -30.144531 42.296875 -21.6875 L 95.578125 -21.6875 L 92.515625 0 L 9.625 0 L 9.625 -20.15625 C 17.84375 -28.082031 24.984375 -35.101562 31.046875 -41.21875 C 37.109375 -47.34375 42.222656 -52.773438 46.390625 -57.515625 C 50.566406 -62.253906 53.925781 -66.484375 56.46875 -70.203125 C 59.019531 -73.921875 60.863281 -77.351562 62 -80.5 C 63.144531 -83.65625 63.71875 -86.703125 63.71875 -89.640625 C 63.71875 -94.679688 62.257812 -98.671875 59.34375 -101.609375 C 56.4375 -104.546875 52.316406 -106.015625 46.984375 -106.015625 C 42.242188 -106.015625 38.132812 -105.023438 34.65625 -103.046875 C 31.175781 -101.066406 27.8125 -97.859375 24.5625 -93.421875 L 7.109375 -106.5625 C 11.785156 -113.039062 17.546875 -118.210938 24.390625 -122.078125 C 31.234375 -125.953125 39.664062 -127.890625 49.6875 -127.890625 Z M 49.6875 -127.890625 "/></g></g><g style="fill:#d65c5c;fill-opacity:1;"><g transform="translate(576.74836, 300.970946)"><path style="stroke:none" d="M 48.953125 -127.890625 C 57.953125 -127.890625 65.617188 -126.429688 71.953125 -123.515625 C 78.285156 -120.609375 83.113281 -116.738281 86.4375 -111.90625 C 89.769531 -107.082031 91.4375 -101.757812 91.4375 -95.9375 C 91.4375 -90.65625 90.382812 -86.050781 88.28125 -82.125 C 86.1875 -78.195312 83.234375 -74.910156 79.421875 -72.265625 C 75.609375 -69.628906 71.125 -67.5625 65.96875 -66.0625 C 71.726562 -65.28125 76.8125 -63.734375 81.21875 -61.421875 C 85.632812 -59.109375 89.101562 -55.820312 91.625 -51.5625 C 94.144531 -47.3125 95.40625 -41.820312 95.40625 -35.09375 C 95.40625 -28.070312 93.46875 -21.679688 89.59375 -15.921875 C 85.726562 -10.171875 80.191406 -5.566406 72.984375 -2.109375 C 65.785156 1.335938 57.175781 3.0625 47.15625 3.0625 C 37.851562 3.0625 29.507812 1.425781 22.125 -1.84375 C 14.75 -5.113281 8.453125 -9.71875 3.234375 -15.65625 L 19.265625 -30.59375 C 22.859375 -26.457031 26.859375 -23.441406 31.265625 -21.546875 C 35.679688 -19.660156 40.347656 -18.71875 45.265625 -18.71875 C 51.453125 -18.71875 56.492188 -20.289062 60.390625 -23.4375 C 64.285156 -26.59375 66.234375 -31.140625 66.234375 -37.078125 C 66.234375 -41.515625 65.410156 -45.097656 63.765625 -47.828125 C 62.117188 -50.566406 59.71875 -52.5625 56.5625 -53.8125 C 53.414062 -55.070312 49.59375 -55.703125 45.09375 -55.703125 L 33.75 -55.703125 L 36.984375 -75.328125 L 45.09375 -75.328125 C 48.75 -75.328125 51.988281 -75.925781 54.8125 -77.125 C 57.632812 -78.332031 59.851562 -80.148438 61.46875 -82.578125 C 63.09375 -85.003906 63.90625 -88.019531 63.90625 -91.625 C 63.90625 -96.300781 62.222656 -99.988281 58.859375 -102.6875 C 55.492188 -105.382812 51.144531 -106.734375 45.8125 -106.734375 C 40.832031 -106.734375 36.316406 -105.773438 32.265625 -103.859375 C 28.210938 -101.941406 24.414062 -99.300781 20.875 -95.9375 L 6.296875 -111.0625 C 11.992188 -116.582031 18.382812 -120.765625 25.46875 -123.609375 C 32.550781 -126.460938 40.378906 -127.890625 48.953125 -127.890625 Z M 48.953125 -127.890625 "/></g></g><g style="fill:#d65c5c;fill-opacity:1;"><g transform="translate(684.748252, 300.970946)"><path style="stroke:none" d="M 47.515625 2.875 L 20.515625 -5.484375 L 67.046875 -103.3125 L 12.234375 -103.3125 L 12.234375 -124.734375 L 95.84375 -124.734375 L 95.84375 -105.484375 Z M 47.515625 2.875 "/></g></g><path style=" stroke:none;fill-rule:nonzero;fill:#d65c5c;fill-opacity:1;" d="M 173.820312 118.996094 C 175.492188 111.46875 178.398438 104.03125 180.753906 97.007812 C 185.746094 82.121094 191.226562 67.390625 197.996094 53.210938 C 207.566406 33.167969 239.332031 49.132812 232.628906 69.253906 C 230.492188 75.648438 227.984375 81.941406 225.308594 88.179688 C 350.945312 0.253906 540.613281 1.746094 652.132812 111.789062 C 659.066406 118.632812 649.457031 129.402344 641.542969 124.566406 C 578.476562 86.046875 507.585938 59.296875 432.925781 59.8125 C 364.042969 60.289062 300.742188 84.039062 244.917969 122.289062 C 261.886719 125.195312 278.714844 128.886719 295.234375 133.53125 C 304.277344 136.082031 304.511719 151.417969 294.566406 152.753906 C 258.246094 157.667969 221.359375 158.542969 184.78125 155.917969 C 162.574219 154.335938 161.75 128.863281 173.820312 118.996094 Z M 173.820312 118.996094 "/></g></svg>