<svg xmlns="http://www.w3.org/2000/svg" xmlns:xlink="http://www.w3.org/1999/xlink" width="1080" zoomAndPan="magnify" viewBox="0 0 810 809.999993" height="1080" preserveAspectRatio="xMidYMid meet" version="1.2"><defs/><g id="e51cdaa33f"><path style=" stroke:none;fill-rule:nonzero;fill:#d65c5c;fill-opacity:1;" d="M 656.238281 387.636719 C 654.621094 394.910156 651.8125 402.097656 649.535156 408.886719 C 644.710938 423.277344 639.414062 437.515625 632.871094 451.21875 C 623.621094 470.59375 592.917969 455.160156 599.394531 435.710938 C 601.460938 429.53125 603.886719 423.449219 606.472656 417.417969 C 485.039062 502.402344 301.714844 500.960938 193.925781 394.597656 C 187.222656 387.984375 196.511719 377.574219 204.160156 382.25 C 265.117188 419.484375 333.636719 445.335938 405.800781 444.839844 C 472.378906 444.378906 533.5625 421.421875 587.519531 384.453125 C 571.117188 381.640625 554.851562 378.074219 538.886719 373.582031 C 530.144531 371.121094 529.917969 356.296875 539.53125 355.003906 C 574.636719 350.253906 610.289062 349.410156 645.644531 351.945312 C 667.109375 353.476562 667.902344 378.097656 656.238281 387.636719 Z M 656.238281 387.636719 "/><g style="fill:#d65c5c;fill-opacity:1;"><g transform="translate(45.515626, 600.548078)"><path style="stroke:none" d="M 61.046875 1.65625 C 52.953125 1.65625 45.453125 0.28125 38.546875 -2.46875 C 31.648438 -5.21875 25.625 -9.066406 20.46875 -14.015625 C 15.320312 -18.972656 11.320312 -24.800781 8.46875 -31.5 C 5.625 -38.195312 4.203125 -45.445312 4.203125 -53.25 C 4.203125 -61.144531 5.625 -68.414062 8.46875 -75.0625 C 11.320312 -81.71875 15.320312 -87.492188 20.46875 -92.390625 C 25.625 -97.296875 31.625 -101.148438 38.46875 -103.953125 C 45.320312 -106.753906 52.75 -108.15625 60.75 -108.15625 C 69.144531 -108.15625 76.691406 -106.828125 83.390625 -104.171875 C 90.097656 -101.523438 96 -97.851562 101.09375 -93.15625 L 83.09375 -75.15625 C 80.59375 -77.945312 77.492188 -80.144531 73.796875 -81.75 C 70.097656 -83.351562 65.75 -84.15625 60.75 -84.15625 C 56.445312 -84.15625 52.519531 -83.453125 48.96875 -82.046875 C 45.425781 -80.648438 42.351562 -78.578125 39.75 -75.828125 C 37.144531 -73.078125 35.117188 -69.800781 33.671875 -66 C 32.222656 -62.195312 31.5 -57.945312 31.5 -53.25 C 31.5 -48.550781 32.222656 -44.300781 33.671875 -40.5 C 35.117188 -36.695312 37.144531 -33.421875 39.75 -30.671875 C 42.351562 -27.921875 45.425781 -25.820312 48.96875 -24.375 C 52.519531 -22.925781 56.445312 -22.203125 60.75 -22.203125 C 65.75 -22.203125 70.148438 -22.972656 73.953125 -24.515625 C 77.753906 -26.066406 81.003906 -28.296875 83.703125 -31.203125 L 101.703125 -13.203125 C 96.503906 -8.503906 90.628906 -4.851562 84.078125 -2.25 C 77.523438 0.351562 69.847656 1.65625 61.046875 1.65625 Z M 61.046875 1.65625 "/></g></g><g style="fill:#d65c5c;fill-opacity:1;"><g transform="translate(147.965649, 600.548078)"><path style="stroke:none" d="M 43.796875 1.65625 C 35.898438 1.65625 28.875 -0.0195312 22.71875 -3.375 C 16.570312 -6.726562 11.695312 -11.328125 8.09375 -17.171875 C 4.5 -23.023438 2.703125 -29.601562 2.703125 -36.90625 C 2.703125 -44.195312 4.472656 -50.71875 8.015625 -56.46875 C 11.566406 -62.21875 16.441406 -66.769531 22.640625 -70.125 C 28.847656 -73.476562 35.851562 -75.15625 43.65625 -75.15625 C 51.445312 -75.15625 58.414062 -73.476562 64.5625 -70.125 C 70.71875 -66.769531 75.59375 -62.21875 79.1875 -56.46875 C 82.789062 -50.71875 84.59375 -44.195312 84.59375 -36.90625 C 84.59375 -29.601562 82.816406 -23.023438 79.265625 -17.171875 C 75.722656 -11.328125 70.875 -6.726562 64.71875 -3.375 C 58.570312 -0.0195312 51.597656 1.65625 43.796875 1.65625 Z M 43.65625 -21.59375 C 46.550781 -21.59375 49.070312 -22.21875 51.21875 -23.46875 C 53.375 -24.71875 55.050781 -26.492188 56.25 -28.796875 C 57.445312 -31.097656 58.046875 -33.75 58.046875 -36.75 C 58.046875 -39.75 57.421875 -42.375 56.171875 -44.625 C 54.921875 -46.875 53.242188 -48.625 51.140625 -49.875 C 49.046875 -51.125 46.550781 -51.75 43.65625 -51.75 C 40.851562 -51.75 38.347656 -51.097656 36.140625 -49.796875 C 33.941406 -48.492188 32.242188 -46.71875 31.046875 -44.46875 C 29.847656 -42.21875 29.25 -39.59375 29.25 -36.59375 C 29.25 -33.695312 29.847656 -31.097656 31.046875 -28.796875 C 32.242188 -26.492188 33.941406 -24.71875 36.140625 -23.46875 C 38.347656 -22.21875 40.851562 -21.59375 43.65625 -21.59375 Z M 43.65625 -21.59375 "/></g></g><g style="fill:#d65c5c;fill-opacity:1;"><g transform="translate(235.265662, 600.548078)"><path style="stroke:none" d="M 55.203125 0 L 55.203125 -41.40625 C 55.203125 -44.800781 54.203125 -47.472656 52.203125 -49.421875 C 50.203125 -51.367188 47.648438 -52.34375 44.546875 -52.34375 C 42.453125 -52.34375 40.578125 -51.894531 38.921875 -51 C 37.273438 -50.101562 36 -48.851562 35.09375 -47.25 C 34.195312 -45.644531 33.75 -43.695312 33.75 -41.40625 L 23.546875 -46.203125 C 23.546875 -52.097656 24.84375 -57.171875 27.4375 -61.421875 C 30.039062 -65.671875 33.617188 -68.96875 38.171875 -71.3125 C 42.722656 -73.664062 47.898438 -74.84375 53.703125 -74.84375 C 59.003906 -74.84375 63.726562 -73.617188 67.875 -71.171875 C 72.019531 -68.722656 75.289062 -65.445312 77.6875 -61.34375 C 80.09375 -57.25 81.296875 -52.601562 81.296875 -47.40625 L 81.296875 0 Z M 7.65625 0 L 7.65625 -73.34375 L 33.75 -73.34375 L 33.75 0 Z M 7.65625 0 "/></g></g><g style="fill:#d65c5c;fill-opacity:1;"><g transform="translate(322.715686, 600.548078)"><path style="stroke:none" d="M 29.703125 0 L -0.15625 -73.34375 L 27.75 -73.34375 L 46.796875 -11.546875 L 36.15625 -11.546875 L 55.046875 -73.34375 L 82.65625 -73.34375 L 52.796875 0 Z M 29.703125 0 "/></g></g><g style="fill:#d65c5c;fill-opacity:1;"><g transform="translate(403.565695, 600.548078)"><path style="stroke:none" d="M 44.703125 1.65625 C 36.503906 1.65625 29.253906 0.03125 22.953125 -3.21875 C 16.648438 -6.46875 11.695312 -10.992188 8.09375 -16.796875 C 4.5 -22.597656 2.703125 -29.25 2.703125 -36.75 C 2.703125 -44.144531 4.453125 -50.71875 7.953125 -56.46875 C 11.453125 -62.21875 16.222656 -66.769531 22.265625 -70.125 C 28.316406 -73.476562 35.144531 -75.15625 42.75 -75.15625 C 50.144531 -75.15625 56.71875 -73.578125 62.46875 -70.421875 C 68.21875 -67.273438 72.71875 -62.925781 75.96875 -57.375 C 79.21875 -51.820312 80.84375 -45.5 80.84375 -38.40625 C 80.84375 -36.90625 80.769531 -35.378906 80.625 -33.828125 C 80.476562 -32.273438 80.15625 -30.5 79.65625 -28.5 L 15 -28.203125 L 15 -45 L 69.296875 -45.453125 L 57.59375 -38.09375 C 57.5 -42.195312 56.898438 -45.570312 55.796875 -48.21875 C 54.703125 -50.875 53.101562 -52.898438 51 -54.296875 C 48.894531 -55.703125 46.242188 -56.40625 43.046875 -56.40625 C 39.742188 -56.40625 36.894531 -55.601562 34.5 -54 C 32.101562 -52.394531 30.253906 -50.144531 28.953125 -47.25 C 27.648438 -44.351562 27 -40.851562 27 -36.75 C 27 -32.550781 27.695312 -28.972656 29.09375 -26.015625 C 30.5 -23.066406 32.5 -20.84375 35.09375 -19.34375 C 37.695312 -17.84375 40.898438 -17.09375 44.703125 -17.09375 C 48.296875 -17.09375 51.46875 -17.691406 54.21875 -18.890625 C 56.96875 -20.097656 59.445312 -21.953125 61.65625 -24.453125 L 75.296875 -10.796875 C 71.703125 -6.703125 67.328125 -3.601562 62.171875 -1.5 C 57.023438 0.601562 51.203125 1.65625 44.703125 1.65625 Z M 44.703125 1.65625 "/></g></g><g style="fill:#d65c5c;fill-opacity:1;"><g transform="translate(486.665705, 600.548078)"><path style="stroke:none" d="M 7.65625 0 L 7.65625 -73.34375 L 33.75 -73.34375 L 33.75 0 Z M 33.75 -39.90625 L 22.046875 -49.796875 C 24.953125 -58.097656 28.800781 -64.347656 33.59375 -68.546875 C 38.394531 -72.742188 44.644531 -74.84375 52.34375 -74.84375 C 55.84375 -74.84375 58.867188 -74.394531 61.421875 -73.5 C 63.972656 -72.601562 66.148438 -71.203125 67.953125 -69.296875 L 52.796875 -49.046875 C 51.992188 -49.953125 50.867188 -50.675781 49.421875 -51.21875 C 47.972656 -51.769531 46.347656 -52.046875 44.546875 -52.046875 C 41.148438 -52.046875 38.5 -51.019531 36.59375 -48.96875 C 34.695312 -46.925781 33.75 -43.90625 33.75 -39.90625 Z M 33.75 -39.90625 "/></g></g><g style="fill:#d65c5c;fill-opacity:1;"><g transform="translate(553.115729, 600.548078)"><path style="stroke:none" d="M 17.703125 0 L 17.703125 -103.65625 L 43.796875 -103.65625 L 43.796875 0 Z M 1.5 -51.59375 L 1.5 -73.34375 L 60 -73.34375 L 60 -51.59375 Z M 1.5 -51.59375 "/></g></g><g style="fill:#d65c5c;fill-opacity:1;"><g transform="translate(613.415744, 600.548078)"><path style="stroke:none" d="M 44.703125 1.65625 C 36.503906 1.65625 29.253906 0.03125 22.953125 -3.21875 C 16.648438 -6.46875 11.695312 -10.992188 8.09375 -16.796875 C 4.5 -22.597656 2.703125 -29.25 2.703125 -36.75 C 2.703125 -44.144531 4.453125 -50.71875 7.953125 -56.46875 C 11.453125 -62.21875 16.222656 -66.769531 22.265625 -70.125 C 28.316406 -73.476562 35.144531 -75.15625 42.75 -75.15625 C 50.144531 -75.15625 56.71875 -73.578125 62.46875 -70.421875 C 68.21875 -67.273438 72.71875 -62.925781 75.96875 -57.375 C 79.21875 -51.820312 80.84375 -45.5 80.84375 -38.40625 C 80.84375 -36.90625 80.769531 -35.378906 80.625 -33.828125 C 80.476562 -32.273438 80.15625 -30.5 79.65625 -28.5 L 15 -28.203125 L 15 -45 L 69.296875 -45.453125 L 57.59375 -38.09375 C 57.5 -42.195312 56.898438 -45.570312 55.796875 -48.21875 C 54.703125 -50.875 53.101562 -52.898438 51 -54.296875 C 48.894531 -55.703125 46.242188 -56.40625 43.046875 -56.40625 C 39.742188 -56.40625 36.894531 -55.601562 34.5 -54 C 32.101562 -52.394531 30.253906 -50.144531 28.953125 -47.25 C 27.648438 -44.351562 27 -40.851562 27 -36.75 C 27 -32.550781 27.695312 -28.972656 29.09375 -26.015625 C 30.5 -23.066406 32.5 -20.84375 35.09375 -19.34375 C 37.695312 -17.84375 40.898438 -17.09375 44.703125 -17.09375 C 48.296875 -17.09375 51.46875 -17.691406 54.21875 -18.890625 C 56.96875 -20.097656 59.445312 -21.953125 61.65625 -24.453125 L 75.296875 -10.796875 C 71.703125 -6.703125 67.328125 -3.601562 62.171875 -1.5 C 57.023438 0.601562 51.203125 1.65625 44.703125 1.65625 Z M 44.703125 1.65625 "/></g></g><g style="fill:#d65c5c;fill-opacity:1;"><g transform="translate(696.515776, 600.548078)"><path style="stroke:none" d="M 7.65625 0 L 7.65625 -73.34375 L 33.75 -73.34375 L 33.75 0 Z M 33.75 -39.90625 L 22.046875 -49.796875 C 24.953125 -58.097656 28.800781 -64.347656 33.59375 -68.546875 C 38.394531 -72.742188 44.644531 -74.84375 52.34375 -74.84375 C 55.84375 -74.84375 58.867188 -74.394531 61.421875 -73.5 C 63.972656 -72.601562 66.148438 -71.203125 67.953125 -69.296875 L 52.796875 -49.046875 C 51.992188 -49.953125 50.867188 -50.675781 49.421875 -51.21875 C 47.972656 -51.769531 46.347656 -52.046875 44.546875 -52.046875 C 41.148438 -52.046875 38.5 -51.019531 36.59375 -48.96875 C 34.695312 -46.925781 33.75 -43.90625 33.75 -39.90625 Z M 33.75 -39.90625 "/></g></g><g style="fill:#d65c5c;fill-opacity:1;"><g transform="translate(173.76562, 770.798069)"><path style="stroke:none" d="M 61.203125 1.953125 C 53.003906 1.953125 45.453125 0.550781 38.546875 -2.25 C 31.648438 -5.050781 25.625 -8.953125 20.46875 -13.953125 C 15.320312 -18.953125 11.296875 -24.828125 8.390625 -31.578125 C 5.492188 -38.328125 4.046875 -45.601562 4.046875 -53.40625 C 4.046875 -61.195312 5.46875 -68.414062 8.3125 -75.0625 C 11.164062 -81.71875 15.144531 -87.546875 20.25 -92.546875 C 25.351562 -97.546875 31.351562 -101.421875 38.25 -104.171875 C 45.144531 -106.921875 52.695312 -108.296875 60.90625 -108.296875 C 69.101562 -108.296875 76.648438 -106.921875 83.546875 -104.171875 C 90.453125 -101.421875 96.453125 -97.546875 101.546875 -92.546875 C 106.648438 -87.546875 110.625 -81.695312 113.46875 -75 C 116.320312 -68.300781 117.75 -61.050781 117.75 -53.25 C 117.75 -45.445312 116.320312 -38.195312 113.46875 -31.5 C 110.625 -24.800781 106.648438 -18.925781 101.546875 -13.875 C 96.453125 -8.820312 90.476562 -4.921875 83.625 -2.171875 C 76.769531 0.578125 69.296875 1.953125 61.203125 1.953125 Z M 60.90625 -22.046875 C 66.90625 -22.046875 72.101562 -23.34375 76.5 -25.9375 C 80.894531 -28.539062 84.289062 -32.191406 86.6875 -36.890625 C 89.09375 -41.597656 90.296875 -47.101562 90.296875 -53.40625 C 90.296875 -58 89.617188 -62.195312 88.265625 -66 C 86.921875 -69.800781 84.945312 -73.078125 82.34375 -75.828125 C 79.75 -78.578125 76.648438 -80.703125 73.046875 -82.203125 C 69.453125 -83.703125 65.40625 -84.453125 60.90625 -84.453125 C 54.90625 -84.453125 49.703125 -83.175781 45.296875 -80.625 C 40.898438 -78.070312 37.5 -74.445312 35.09375 -69.75 C 32.695312 -65.050781 31.5 -59.601562 31.5 -53.40625 C 31.5 -48.601562 32.171875 -44.273438 33.515625 -40.421875 C 34.867188 -36.578125 36.84375 -33.28125 39.4375 -30.53125 C 42.039062 -27.78125 45.144531 -25.675781 48.75 -24.21875 C 52.351562 -22.769531 56.40625 -22.046875 60.90625 -22.046875 Z M 60.90625 -22.046875 "/></g></g><g style="fill:#d65c5c;fill-opacity:1;"><g transform="translate(295.565644, 770.798069)"><path style="stroke:none" d="M 55.203125 0 L 55.203125 -41.40625 C 55.203125 -44.800781 54.203125 -47.472656 52.203125 -49.421875 C 50.203125 -51.367188 47.648438 -52.34375 44.546875 -52.34375 C 42.453125 -52.34375 40.578125 -51.894531 38.921875 -51 C 37.273438 -50.101562 36 -48.851562 35.09375 -47.25 C 34.195312 -45.644531 33.75 -43.695312 33.75 -41.40625 L 23.546875 -46.203125 C 23.546875 -52.097656 24.84375 -57.171875 27.4375 -61.421875 C 30.039062 -65.671875 33.617188 -68.96875 38.171875 -71.3125 C 42.722656 -73.664062 47.898438 -74.84375 53.703125 -74.84375 C 59.003906 -74.84375 63.726562 -73.617188 67.875 -71.171875 C 72.019531 -68.722656 75.289062 -65.445312 77.6875 -61.34375 C 80.09375 -57.25 81.296875 -52.601562 81.296875 -47.40625 L 81.296875 0 Z M 7.65625 0 L 7.65625 -73.34375 L 33.75 -73.34375 L 33.75 0 Z M 7.65625 0 "/></g></g><g style="fill:#d65c5c;fill-opacity:1;"><g transform="translate(383.015655, 770.798069)"><path style="stroke:none" d="M 7.65625 0 L 7.65625 -109.34375 L 33.75 -109.34375 L 33.75 0 Z M 7.65625 0 "/></g></g><g style="fill:#d65c5c;fill-opacity:1;"><g transform="translate(424.415662, 770.798069)"><path style="stroke:none" d="M 7.5 0 L 7.5 -73.34375 L 33.75 -73.34375 L 33.75 0 Z M 20.546875 -81.90625 C 16.648438 -81.90625 13.398438 -83.226562 10.796875 -85.875 C 8.203125 -88.519531 6.90625 -91.84375 6.90625 -95.84375 C 6.90625 -99.75 8.203125 -103.050781 10.796875 -105.75 C 13.398438 -108.445312 16.648438 -109.796875 20.546875 -109.796875 C 24.648438 -109.796875 27.972656 -108.445312 30.515625 -105.75 C 33.066406 -103.050781 34.34375 -99.75 34.34375 -95.84375 C 34.34375 -91.84375 33.066406 -88.519531 30.515625 -85.875 C 27.972656 -83.226562 24.648438 -81.90625 20.546875 -81.90625 Z M 20.546875 -81.90625 "/></g><g transform="translate(465.66566, 770.798069)"><path style="stroke:none" d="M 55.203125 0 L 55.203125 -41.40625 C 55.203125 -44.800781 54.203125 -47.472656 52.203125 -49.421875 C 50.203125 -51.367188 47.648438 -52.34375 44.546875 -52.34375 C 42.453125 -52.34375 40.578125 -51.894531 38.921875 -51 C 37.273438 -50.101562 36 -48.851562 35.09375 -47.25 C 34.195312 -45.644531 33.75 -43.695312 33.75 -41.40625 L 23.546875 -46.203125 C 23.546875 -52.097656 24.84375 -57.171875 27.4375 -61.421875 C 30.039062 -65.671875 33.617188 -68.96875 38.171875 -71.3125 C 42.722656 -73.664062 47.898438 -74.84375 53.703125 -74.84375 C 59.003906 -74.84375 63.726562 -73.617188 67.875 -71.171875 C 72.019531 -68.722656 75.289062 -65.445312 77.6875 -61.34375 C 80.09375 -57.25 81.296875 -52.601562 81.296875 -47.40625 L 81.296875 0 Z M 7.65625 0 L 7.65625 -73.34375 L 33.75 -73.34375 L 33.75 0 Z M 7.65625 0 "/></g></g><g style="fill:#d65c5c;fill-opacity:1;"><g transform="translate(553.115685, 770.798069)"><path style="stroke:none" d="M 44.703125 1.65625 C 36.503906 1.65625 29.253906 0.03125 22.953125 -3.21875 C 16.648438 -6.46875 11.695312 -10.992188 8.09375 -16.796875 C 4.5 -22.597656 2.703125 -29.25 2.703125 -36.75 C 2.703125 -44.144531 4.453125 -50.71875 7.953125 -56.46875 C 11.453125 -62.21875 16.222656 -66.769531 22.265625 -70.125 C 28.316406 -73.476562 35.144531 -75.15625 42.75 -75.15625 C 50.144531 -75.15625 56.71875 -73.578125 62.46875 -70.421875 C 68.21875 -67.273438 72.71875 -62.925781 75.96875 -57.375 C 79.21875 -51.820312 80.84375 -45.5 80.84375 -38.40625 C 80.84375 -36.90625 80.769531 -35.378906 80.625 -33.828125 C 80.476562 -32.273438 80.15625 -30.5 79.65625 -28.5 L 15 -28.203125 L 15 -45 L 69.296875 -45.453125 L 57.59375 -38.09375 C 57.5 -42.195312 56.898438 -45.570312 55.796875 -48.21875 C 54.703125 -50.875 53.101562 -52.898438 51 -54.296875 C 48.894531 -55.703125 46.242188 -56.40625 43.046875 -56.40625 C 39.742188 -56.40625 36.894531 -55.601562 34.5 -54 C 32.101562 -52.394531 30.253906 -50.144531 28.953125 -47.25 C 27.648438 -44.351562 27 -40.851562 27 -36.75 C 27 -32.550781 27.695312 -28.972656 29.09375 -26.015625 C 30.5 -23.066406 32.5 -20.84375 35.09375 -19.34375 C 37.695312 -17.84375 40.898438 -17.09375 44.703125 -17.09375 C 48.296875 -17.09375 51.46875 -17.691406 54.21875 -18.890625 C 56.96875 -20.097656 59.445312 -21.953125 61.65625 -24.453125 L 75.296875 -10.796875 C 71.703125 -6.703125 67.328125 -3.601562 62.171875 -1.5 C 57.023438 0.601562 51.203125 1.65625 44.703125 1.65625 Z M 44.703125 1.65625 "/></g></g><g style="fill:#d65c5c;fill-opacity:1;"><g transform="translate(40.118168, 318.450386)"><path style="stroke:none" d="M 27.1875 0 L 27.1875 -127.625 L 59.046875 -127.625 L 59.046875 0 Z M 2.875 -100.796875 L 2.875 -127.625 L 57.234375 -127.625 L 57.234375 -100.796875 Z M 2.875 -100.796875 "/></g></g><g style="fill:#d65c5c;fill-opacity:1;"><g transform="translate(110.318169, 318.450386)"><path style="stroke:none" d="M 60.65625 1.984375 C 49.976562 1.984375 40.4375 -0.804688 32.03125 -6.390625 C 23.632812 -11.972656 17.003906 -19.742188 12.140625 -29.703125 C 7.285156 -39.660156 4.859375 -51.117188 4.859375 -64.078125 C 4.859375 -76.921875 7.257812 -88.289062 12.0625 -98.1875 C 16.863281 -108.09375 23.429688 -115.832031 31.765625 -121.40625 C 40.109375 -126.988281 49.5625 -129.78125 60.125 -129.78125 C 70.914062 -129.78125 80.507812 -126.988281 88.90625 -121.40625 C 97.3125 -115.832031 103.914062 -108.09375 108.71875 -98.1875 C 113.519531 -88.289062 115.921875 -76.800781 115.921875 -63.71875 C 115.921875 -50.757812 113.519531 -39.328125 108.71875 -29.421875 C 103.914062 -19.523438 97.34375 -11.816406 89 -6.296875 C 80.664062 -0.773438 71.21875 1.984375 60.65625 1.984375 Z M 60.296875 -25.734375 C 65.222656 -25.734375 69.425781 -27.203125 72.90625 -30.140625 C 76.382812 -33.085938 79.050781 -37.378906 80.90625 -43.015625 C 82.769531 -48.660156 83.703125 -55.625 83.703125 -63.90625 C 83.703125 -72.0625 82.769531 -78.957031 80.90625 -84.59375 C 79.050781 -90.238281 76.382812 -94.53125 72.90625 -97.46875 C 69.425781 -100.40625 65.164062 -101.875 60.125 -101.875 C 55.4375 -101.875 51.351562 -100.429688 47.875 -97.546875 C 44.394531 -94.671875 41.722656 -90.410156 39.859375 -84.765625 C 38.003906 -79.128906 37.078125 -72.234375 37.078125 -64.078125 C 37.078125 -55.796875 38.003906 -48.804688 39.859375 -43.109375 C 41.722656 -37.410156 44.394531 -33.085938 47.875 -30.140625 C 51.351562 -27.203125 55.492188 -25.734375 60.296875 -25.734375 Z M 60.296875 -25.734375 "/></g></g><g style="fill:#d65c5c;fill-opacity:1;"><g transform="translate(231.09817, 318.450386)"><path style="stroke:none" d="M 60.65625 1.984375 C 49.976562 1.984375 40.4375 -0.804688 32.03125 -6.390625 C 23.632812 -11.972656 17.003906 -19.742188 12.140625 -29.703125 C 7.285156 -39.660156 4.859375 -51.117188 4.859375 -64.078125 C 4.859375 -76.921875 7.257812 -88.289062 12.0625 -98.1875 C 16.863281 -108.09375 23.429688 -115.832031 31.765625 -121.40625 C 40.109375 -126.988281 49.5625 -129.78125 60.125 -129.78125 C 70.914062 -129.78125 80.507812 -126.988281 88.90625 -121.40625 C 97.3125 -115.832031 103.914062 -108.09375 108.71875 -98.1875 C 113.519531 -88.289062 115.921875 -76.800781 115.921875 -63.71875 C 115.921875 -50.757812 113.519531 -39.328125 108.71875 -29.421875 C 103.914062 -19.523438 97.34375 -11.816406 89 -6.296875 C 80.664062 -0.773438 71.21875 1.984375 60.65625 1.984375 Z M 60.296875 -25.734375 C 65.222656 -25.734375 69.425781 -27.203125 72.90625 -30.140625 C 76.382812 -33.085938 79.050781 -37.378906 80.90625 -43.015625 C 82.769531 -48.660156 83.703125 -55.625 83.703125 -63.90625 C 83.703125 -72.0625 82.769531 -78.957031 80.90625 -84.59375 C 79.050781 -90.238281 76.382812 -94.53125 72.90625 -97.46875 C 69.425781 -100.40625 65.164062 -101.875 60.125 -101.875 C 55.4375 -101.875 51.351562 -100.429688 47.875 -97.546875 C 44.394531 -94.671875 41.722656 -90.410156 39.859375 -84.765625 C 38.003906 -79.128906 37.078125 -72.234375 37.078125 -64.078125 C 37.078125 -55.796875 38.003906 -48.804688 39.859375 -43.109375 C 41.722656 -37.410156 44.394531 -33.085938 47.875 -30.140625 C 51.351562 -27.203125 55.492188 -25.734375 60.296875 -25.734375 Z M 60.296875 -25.734375 "/></g></g><g style="fill:#d65c5c;fill-opacity:1;"><g transform="translate(481.164483, 307.720946)"><path style="stroke:none" d="M 3.953125 -17.453125 L 54 -68.40625 C 56.394531 -71.039062 58.375 -73.40625 59.9375 -75.5 C 61.5 -77.601562 62.609375 -79.582031 63.265625 -81.4375 C 63.929688 -83.300781 64.265625 -85.253906 64.265625 -87.296875 C 64.265625 -91.859375 62.789062 -95.457031 59.84375 -98.09375 C 56.90625 -100.738281 53.035156 -102.0625 48.234375 -102.0625 C 43.679688 -102.0625 39.539062 -100.769531 35.8125 -98.1875 C 32.09375 -95.601562 28.253906 -91.3125 24.296875 -85.3125 L 3.234375 -104.046875 C 8.398438 -112.441406 15 -118.828125 23.03125 -123.203125 C 31.070312 -127.585938 40.316406 -129.78125 50.765625 -129.78125 C 60.003906 -129.78125 67.984375 -128.097656 74.703125 -124.734375 C 81.421875 -121.378906 86.609375 -116.609375 90.265625 -110.421875 C 93.929688 -104.242188 95.765625 -96.957031 95.765625 -88.5625 C 95.765625 -83.519531 95.101562 -78.867188 93.78125 -74.609375 C 92.457031 -70.347656 90.351562 -66.144531 87.46875 -62 C 84.59375 -57.863281 80.753906 -53.515625 75.953125 -48.953125 L 42.84375 -16.734375 Z M 3.953125 0 L 3.953125 -17.453125 L 30.78125 -26.8125 L 98.453125 -26.8125 L 98.453125 0 Z M 3.953125 0 "/></g></g><g style="fill:#d65c5c;fill-opacity:1;"><g transform="translate(584.844482, 307.720946)"><path style="stroke:none" d="M 46.078125 1.984375 C 37.078125 1.984375 28.796875 0.453125 21.234375 -2.609375 C 13.679688 -5.671875 7.265625 -10.019531 1.984375 -15.65625 L 22.5 -35.8125 C 24.65625 -32.695312 27.863281 -30.148438 32.125 -28.171875 C 36.382812 -26.191406 40.859375 -25.203125 45.546875 -25.203125 C 49.503906 -25.203125 53.007812 -25.890625 56.0625 -27.265625 C 59.125 -28.648438 61.523438 -30.628906 63.265625 -33.203125 C 65.003906 -35.785156 65.875 -38.878906 65.875 -42.484375 C 65.875 -46.078125 64.972656 -49.164062 63.171875 -51.75 C 61.378906 -54.332031 58.832031 -56.28125 55.53125 -57.59375 C 52.226562 -58.914062 48.296875 -59.578125 43.734375 -59.578125 C 41.335938 -59.578125 38.847656 -59.425781 36.265625 -59.125 C 33.691406 -58.832031 31.625 -58.382812 30.0625 -57.78125 L 44.09375 -75.421875 C 47.9375 -76.378906 51.445312 -77.1875 54.625 -77.84375 C 57.8125 -78.507812 60.664062 -78.84375 63.1875 -78.84375 C 69.664062 -78.84375 75.484375 -77.3125 80.640625 -74.25 C 85.796875 -71.1875 89.875 -66.863281 92.875 -61.28125 C 95.875 -55.707031 97.375 -49.140625 97.375 -41.578125 C 97.375 -32.941406 95.273438 -25.351562 91.078125 -18.8125 C 86.878906 -12.269531 80.910156 -7.164062 73.171875 -3.5 C 65.429688 0.15625 56.398438 1.984375 46.078125 1.984375 Z M 30.0625 -57.78125 L 30.0625 -75.421875 L 59.765625 -110.15625 L 94.6875 -110.15625 L 64.078125 -75.421875 Z M 10.796875 -100.796875 L 10.796875 -127.625 L 94.6875 -127.625 L 94.6875 -110.15625 L 70.375 -100.796875 Z M 10.796875 -100.796875 "/></g></g><g style="fill:#d65c5c;fill-opacity:1;"><g transform="translate(684.92449, 307.720946)"><path style="stroke:none" d="M 19.4375 0 L 61.203125 -109.984375 L 92.34375 -109.984375 L 52.375 0 Z M 2.875 -100.796875 L 2.875 -127.625 L 92.34375 -127.625 L 92.34375 -109.984375 L 82.625 -100.796875 Z M 2.875 -100.796875 "/></g></g><path style=" stroke:none;fill-rule:nonzero;fill:#d65c5c;fill-opacity:1;" d="M 173.820312 118.996094 C 175.492188 111.46875 178.398438 104.03125 180.753906 97.007812 C 185.746094 82.121094 191.226562 67.390625 197.996094 53.210938 C 207.566406 33.167969 239.332031 49.132812 232.628906 69.253906 C 230.492188 75.648438 227.984375 81.941406 225.308594 88.179688 C 350.945312 0.253906 540.613281 1.746094 652.132812 111.789062 C 659.066406 118.632812 649.457031 129.402344 641.542969 124.566406 C 578.476562 86.046875 507.585938 59.296875 432.925781 59.8125 C 364.042969 60.289062 300.742188 84.039062 244.917969 122.289062 C 261.886719 125.195312 278.714844 128.886719 295.234375 133.53125 C 304.277344 136.082031 304.511719 151.417969 294.566406 152.753906 C 258.246094 157.667969 221.359375 158.542969 184.78125 155.917969 C 162.574219 154.335938 161.75 128.863281 173.820312 118.996094 Z M 173.820312 118.996094 "/></g></svg>