<svg xmlns="http://www.w3.org/2000/svg" xmlns:xlink="http://www.w3.org/1999/xlink" width="1080" zoomAndPan="magnify" viewBox="0 0 810 809.999993" height="1080" preserveAspectRatio="xMidYMid meet" version="1.2"><defs/><g id="d5dfdcdc86"><path style=" stroke:none;fill-rule:nonzero;fill:#d65c5c;fill-opacity:1;" d="M 644.742188 378.9375 C 643.160156 386.054688 640.410156 393.085938 638.183594 399.726562 C 633.464844 413.800781 628.28125 427.730469 621.882812 441.136719 C 612.832031 460.085938 582.796875 444.992188 589.136719 425.964844 C 591.15625 419.917969 593.527344 413.972656 596.058594 408.070312 C 477.269531 491.207031 297.9375 489.792969 192.492188 385.75 C 185.933594 379.277344 195.023438 369.09375 202.503906 373.667969 C 262.136719 410.089844 329.164062 435.382812 399.753906 434.894531 C 464.886719 434.445312 524.734375 411.988281 577.519531 375.824219 C 561.472656 373.074219 545.5625 369.582031 529.941406 365.191406 C 521.390625 362.78125 521.171875 348.28125 530.574219 347.015625 C 564.914062 342.371094 599.792969 341.542969 634.375 344.023438 C 655.371094 345.519531 656.152344 369.605469 644.742188 378.9375 Z M 644.742188 378.9375 "/><g style="fill:#d65c5c;fill-opacity:1;"><g transform="translate(51.66797, 600.548078)"><path style="stroke:none" d="M 60.453125 1.65625 C 52.546875 1.65625 45.21875 0.28125 38.46875 -2.46875 C 31.71875 -5.21875 25.816406 -9.09375 20.765625 -14.09375 C 15.722656 -19.09375 11.800781 -24.914062 9 -31.5625 C 6.195312 -38.21875 4.796875 -45.394531 4.796875 -53.09375 C 4.796875 -60.800781 6.195312 -67.976562 9 -74.625 C 11.800781 -81.269531 15.703125 -87.039062 20.703125 -91.9375 C 25.703125 -96.84375 31.578125 -100.671875 38.328125 -103.421875 C 45.078125 -106.171875 52.398438 -107.546875 60.296875 -107.546875 C 68.703125 -107.546875 76.175781 -106.195312 82.71875 -103.5 C 89.269531 -100.800781 95 -97.101562 99.90625 -92.40625 L 84.15625 -76.5 C 81.351562 -79.5 77.972656 -81.847656 74.015625 -83.546875 C 70.066406 -85.242188 65.492188 -86.09375 60.296875 -86.09375 C 55.703125 -86.09375 51.476562 -85.316406 47.625 -83.765625 C 43.769531 -82.222656 40.46875 -80 37.71875 -77.09375 C 34.96875 -74.195312 32.816406 -70.695312 31.265625 -66.59375 C 29.722656 -62.5 28.953125 -58 28.953125 -53.09375 C 28.953125 -48.09375 29.722656 -43.539062 31.265625 -39.4375 C 32.816406 -35.34375 34.96875 -31.84375 37.71875 -28.9375 C 40.46875 -26.039062 43.769531 -23.789062 47.625 -22.1875 C 51.476562 -20.59375 55.703125 -19.796875 60.296875 -19.796875 C 65.703125 -19.796875 70.40625 -20.644531 74.40625 -22.34375 C 78.40625 -24.050781 81.851562 -26.40625 84.75 -29.40625 L 100.65625 -13.5 C 95.550781 -8.800781 89.722656 -5.097656 83.171875 -2.390625 C 76.617188 0.304688 69.046875 1.65625 60.453125 1.65625 Z M 60.453125 1.65625 "/></g></g><g style="fill:#d65c5c;fill-opacity:1;"><g transform="translate(153.367992, 600.548078)"><path style="stroke:none" d="M 43.203125 1.65625 C 35.703125 1.65625 28.925781 -0.0195312 22.875 -3.375 C 16.820312 -6.726562 12.046875 -11.300781 8.546875 -17.09375 C 5.046875 -22.894531 3.296875 -29.394531 3.296875 -36.59375 C 3.296875 -43.800781 5.046875 -50.253906 8.546875 -55.953125 C 12.046875 -61.648438 16.796875 -66.171875 22.796875 -69.515625 C 28.796875 -72.867188 35.597656 -74.546875 43.203125 -74.546875 C 50.796875 -74.546875 57.59375 -72.894531 63.59375 -69.59375 C 69.59375 -66.300781 74.34375 -61.78125 77.84375 -56.03125 C 81.34375 -50.28125 83.09375 -43.800781 83.09375 -36.59375 C 83.09375 -29.394531 81.34375 -22.894531 77.84375 -17.09375 C 74.34375 -11.300781 69.59375 -6.726562 63.59375 -3.375 C 57.59375 -0.0195312 50.796875 1.65625 43.203125 1.65625 Z M 43.203125 -19.203125 C 46.503906 -19.203125 49.40625 -19.925781 51.90625 -21.375 C 54.40625 -22.820312 56.328125 -24.867188 57.671875 -27.515625 C 59.023438 -30.171875 59.703125 -33.195312 59.703125 -36.59375 C 59.703125 -40 59 -42.972656 57.59375 -45.515625 C 56.195312 -48.066406 54.273438 -50.066406 51.828125 -51.515625 C 49.378906 -52.972656 46.503906 -53.703125 43.203125 -53.703125 C 40.003906 -53.703125 37.15625 -52.972656 34.65625 -51.515625 C 32.15625 -50.066406 30.203125 -48.039062 28.796875 -45.4375 C 27.398438 -42.84375 26.703125 -39.847656 26.703125 -36.453125 C 26.703125 -33.148438 27.398438 -30.171875 28.796875 -27.515625 C 30.203125 -24.867188 32.15625 -22.820312 34.65625 -21.375 C 37.15625 -19.925781 40.003906 -19.203125 43.203125 -19.203125 Z M 43.203125 -19.203125 "/></g></g><g style="fill:#d65c5c;fill-opacity:1;"><g transform="translate(239.768008, 600.548078)"><path style="stroke:none" d="M 56.25 0 L 56.25 -41.546875 C 56.25 -45.347656 55.070312 -48.421875 52.71875 -50.765625 C 50.375 -53.117188 47.398438 -54.296875 43.796875 -54.296875 C 41.296875 -54.296875 39.09375 -53.769531 37.1875 -52.71875 C 35.289062 -51.675781 33.789062 -50.175781 32.6875 -48.21875 C 31.59375 -46.269531 31.046875 -44.046875 31.046875 -41.546875 L 22.203125 -45.90625 C 22.203125 -51.601562 23.453125 -56.597656 25.953125 -60.890625 C 28.453125 -65.191406 31.925781 -68.519531 36.375 -70.875 C 40.820312 -73.226562 45.847656 -74.40625 51.453125 -74.40625 C 56.847656 -74.40625 61.617188 -73.128906 65.765625 -70.578125 C 69.921875 -68.023438 73.195312 -64.648438 75.59375 -60.453125 C 78 -56.253906 79.203125 -51.65625 79.203125 -46.65625 L 79.203125 0 Z M 8.09375 0 L 8.09375 -72.90625 L 31.046875 -72.90625 L 31.046875 0 Z M 8.09375 0 "/></g></g><g style="fill:#d65c5c;fill-opacity:1;"><g transform="translate(325.568011, 600.548078)"><path style="stroke:none" d="M 31.046875 0 L 0.15625 -72.90625 L 24.90625 -72.90625 L 45.90625 -12.15625 L 35.09375 -12.15625 L 56.09375 -72.90625 L 80.40625 -72.90625 L 49.5 0 Z M 31.046875 0 "/></g></g><g style="fill:#d65c5c;fill-opacity:1;"><g transform="translate(404.168043, 600.548078)"><path style="stroke:none" d="M 44.09375 1.65625 C 36.195312 1.65625 29.171875 0.03125 23.015625 -3.21875 C 16.867188 -6.46875 12.046875 -10.992188 8.546875 -16.796875 C 5.046875 -22.597656 3.296875 -29.148438 3.296875 -36.453125 C 3.296875 -43.753906 5.019531 -50.28125 8.46875 -56.03125 C 11.925781 -61.78125 16.601562 -66.300781 22.5 -69.59375 C 28.394531 -72.894531 35.046875 -74.546875 42.453125 -74.546875 C 49.648438 -74.546875 56 -72.992188 61.5 -69.890625 C 67 -66.796875 71.320312 -62.5 74.46875 -57 C 77.625 -51.5 79.203125 -45.195312 79.203125 -38.09375 C 79.203125 -36.800781 79.125 -35.425781 78.96875 -33.96875 C 78.820312 -32.519531 78.550781 -30.847656 78.15625 -28.953125 L 15.296875 -28.796875 L 15.296875 -44.546875 L 68.40625 -44.703125 L 58.5 -38.09375 C 58.394531 -42.300781 57.742188 -45.78125 56.546875 -48.53125 C 55.347656 -51.28125 53.570312 -53.378906 51.21875 -54.828125 C 48.875 -56.273438 46 -57 42.59375 -57 C 39 -57 35.875 -56.171875 33.21875 -54.515625 C 30.570312 -52.867188 28.523438 -50.546875 27.078125 -47.546875 C 25.628906 -44.546875 24.90625 -40.894531 24.90625 -36.59375 C 24.90625 -32.300781 25.675781 -28.628906 27.21875 -25.578125 C 28.769531 -22.523438 30.96875 -20.171875 33.8125 -18.515625 C 36.664062 -16.867188 40.046875 -16.046875 43.953125 -16.046875 C 47.546875 -16.046875 50.789062 -16.671875 53.6875 -17.921875 C 56.59375 -19.171875 59.144531 -21.046875 61.34375 -23.546875 L 73.953125 -10.953125 C 70.347656 -6.753906 65.992188 -3.601562 60.890625 -1.5 C 55.796875 0.601562 50.195312 1.65625 44.09375 1.65625 Z M 44.09375 1.65625 "/></g></g><g style="fill:#d65c5c;fill-opacity:1;"><g transform="translate(486.368021, 600.548078)"><path style="stroke:none" d="M 8.09375 0 L 8.09375 -72.90625 L 31.046875 -72.90625 L 31.046875 0 Z M 31.046875 -40.046875 L 21.453125 -47.546875 C 23.347656 -56.046875 26.546875 -62.644531 31.046875 -67.34375 C 35.546875 -72.050781 41.796875 -74.40625 49.796875 -74.40625 C 53.296875 -74.40625 56.367188 -73.878906 59.015625 -72.828125 C 61.671875 -71.773438 64 -70.148438 66 -67.953125 L 52.34375 -50.703125 C 51.34375 -51.796875 50.09375 -52.644531 48.59375 -53.25 C 47.09375 -53.851562 45.394531 -54.15625 43.5 -54.15625 C 39.695312 -54.15625 36.671875 -52.976562 34.421875 -50.625 C 32.171875 -48.269531 31.046875 -44.742188 31.046875 -40.046875 Z M 31.046875 -40.046875 "/></g></g><g style="fill:#d65c5c;fill-opacity:1;"><g transform="translate(551.168036, 600.548078)"><path style="stroke:none" d="M 18.453125 0 L 18.453125 -103.046875 L 41.40625 -103.046875 L 41.40625 0 Z M 1.953125 -53.40625 L 1.953125 -72.90625 L 57.90625 -72.90625 L 57.90625 -53.40625 Z M 1.953125 -53.40625 "/></g></g><g style="fill:#d65c5c;fill-opacity:1;"><g transform="translate(609.51807, 600.548078)"><path style="stroke:none" d="M 44.09375 1.65625 C 36.195312 1.65625 29.171875 0.03125 23.015625 -3.21875 C 16.867188 -6.46875 12.046875 -10.992188 8.546875 -16.796875 C 5.046875 -22.597656 3.296875 -29.148438 3.296875 -36.453125 C 3.296875 -43.753906 5.019531 -50.28125 8.46875 -56.03125 C 11.925781 -61.78125 16.601562 -66.300781 22.5 -69.59375 C 28.394531 -72.894531 35.046875 -74.546875 42.453125 -74.546875 C 49.648438 -74.546875 56 -72.992188 61.5 -69.890625 C 67 -66.796875 71.320312 -62.5 74.46875 -57 C 77.625 -51.5 79.203125 -45.195312 79.203125 -38.09375 C 79.203125 -36.800781 79.125 -35.425781 78.96875 -33.96875 C 78.820312 -32.519531 78.550781 -30.847656 78.15625 -28.953125 L 15.296875 -28.796875 L 15.296875 -44.546875 L 68.40625 -44.703125 L 58.5 -38.09375 C 58.394531 -42.300781 57.742188 -45.78125 56.546875 -48.53125 C 55.347656 -51.28125 53.570312 -53.378906 51.21875 -54.828125 C 48.875 -56.273438 46 -57 42.59375 -57 C 39 -57 35.875 -56.171875 33.21875 -54.515625 C 30.570312 -52.867188 28.523438 -50.546875 27.078125 -47.546875 C 25.628906 -44.546875 24.90625 -40.894531 24.90625 -36.59375 C 24.90625 -32.300781 25.675781 -28.628906 27.21875 -25.578125 C 28.769531 -22.523438 30.96875 -20.171875 33.8125 -18.515625 C 36.664062 -16.867188 40.046875 -16.046875 43.953125 -16.046875 C 47.546875 -16.046875 50.789062 -16.671875 53.6875 -17.921875 C 56.59375 -19.171875 59.144531 -21.046875 61.34375 -23.546875 L 73.953125 -10.953125 C 70.347656 -6.753906 65.992188 -3.601562 60.890625 -1.5 C 55.796875 0.601562 50.195312 1.65625 44.09375 1.65625 Z M 44.09375 1.65625 "/></g></g><g style="fill:#d65c5c;fill-opacity:1;"><g transform="translate(691.718093, 600.548078)"><path style="stroke:none" d="M 8.09375 0 L 8.09375 -72.90625 L 31.046875 -72.90625 L 31.046875 0 Z M 31.046875 -40.046875 L 21.453125 -47.546875 C 23.347656 -56.046875 26.546875 -62.644531 31.046875 -67.34375 C 35.546875 -72.050781 41.796875 -74.40625 49.796875 -74.40625 C 53.296875 -74.40625 56.367188 -73.878906 59.015625 -72.828125 C 61.671875 -71.773438 64 -70.148438 66 -67.953125 L 52.34375 -50.703125 C 51.34375 -51.796875 50.09375 -52.644531 48.59375 -53.25 C 47.09375 -53.851562 45.394531 -54.15625 43.5 -54.15625 C 39.695312 -54.15625 36.671875 -52.976562 34.421875 -50.625 C 32.171875 -48.269531 31.046875 -44.742188 31.046875 -40.046875 Z M 31.046875 -40.046875 "/></g></g><g style="fill:#d65c5c;fill-opacity:1;"><g transform="translate(178.48828, 770.798069)"><path style="stroke:none" d="M 60.75 1.796875 C 52.75 1.796875 45.375 0.398438 38.625 -2.390625 C 31.875 -5.191406 25.945312 -9.09375 20.84375 -14.09375 C 15.75 -19.09375 11.800781 -24.914062 9 -31.5625 C 6.195312 -38.21875 4.796875 -45.394531 4.796875 -53.09375 C 4.796875 -60.894531 6.195312 -68.09375 9 -74.6875 C 11.800781 -81.289062 15.703125 -87.066406 20.703125 -92.015625 C 25.703125 -96.972656 31.578125 -100.828125 38.328125 -103.578125 C 45.078125 -106.328125 52.453125 -107.703125 60.453125 -107.703125 C 68.347656 -107.703125 75.671875 -106.328125 82.421875 -103.578125 C 89.171875 -100.828125 95.070312 -96.972656 100.125 -92.015625 C 105.175781 -87.066406 109.097656 -81.269531 111.890625 -74.625 C 114.691406 -67.976562 116.09375 -60.753906 116.09375 -52.953125 C 116.09375 -45.253906 114.691406 -38.078125 111.890625 -31.421875 C 109.097656 -24.773438 105.203125 -18.972656 100.203125 -14.015625 C 95.203125 -9.066406 89.328125 -5.191406 82.578125 -2.390625 C 75.828125 0.398438 68.550781 1.796875 60.75 1.796875 Z M 60.453125 -19.65625 C 66.753906 -19.65625 72.28125 -21.050781 77.03125 -23.84375 C 81.78125 -26.644531 85.453125 -30.570312 88.046875 -35.625 C 90.648438 -40.675781 91.953125 -46.5 91.953125 -53.09375 C 91.953125 -58.09375 91.203125 -62.617188 89.703125 -66.671875 C 88.203125 -70.722656 86.050781 -74.222656 83.25 -77.171875 C 80.445312 -80.117188 77.117188 -82.367188 73.265625 -83.921875 C 69.421875 -85.472656 65.148438 -86.25 60.453125 -86.25 C 54.148438 -86.25 48.625 -84.875 43.875 -82.125 C 39.125 -79.375 35.445312 -75.523438 32.84375 -70.578125 C 30.25 -65.628906 28.953125 -59.800781 28.953125 -53.09375 C 28.953125 -48.09375 29.703125 -43.539062 31.203125 -39.4375 C 32.703125 -35.34375 34.828125 -31.820312 37.578125 -28.875 C 40.328125 -25.925781 43.648438 -23.648438 47.546875 -22.046875 C 51.453125 -20.453125 55.753906 -19.65625 60.453125 -19.65625 Z M 60.453125 -19.65625 "/></g></g><g style="fill:#d65c5c;fill-opacity:1;"><g transform="translate(299.388306, 770.798069)"><path style="stroke:none" d="M 56.25 0 L 56.25 -41.546875 C 56.25 -45.347656 55.070312 -48.421875 52.71875 -50.765625 C 50.375 -53.117188 47.398438 -54.296875 43.796875 -54.296875 C 41.296875 -54.296875 39.09375 -53.769531 37.1875 -52.71875 C 35.289062 -51.675781 33.789062 -50.175781 32.6875 -48.21875 C 31.59375 -46.269531 31.046875 -44.046875 31.046875 -41.546875 L 22.203125 -45.90625 C 22.203125 -51.601562 23.453125 -56.597656 25.953125 -60.890625 C 28.453125 -65.191406 31.925781 -68.519531 36.375 -70.875 C 40.820312 -73.226562 45.847656 -74.40625 51.453125 -74.40625 C 56.847656 -74.40625 61.617188 -73.128906 65.765625 -70.578125 C 69.921875 -68.023438 73.195312 -64.648438 75.59375 -60.453125 C 78 -56.253906 79.203125 -51.65625 79.203125 -46.65625 L 79.203125 0 Z M 8.09375 0 L 8.09375 -72.90625 L 31.046875 -72.90625 L 31.046875 0 Z M 8.09375 0 "/></g></g><g style="fill:#d65c5c;fill-opacity:1;"><g transform="translate(385.188319, 770.798069)"><path style="stroke:none" d="M 8.09375 0 L 8.09375 -108.90625 L 31.046875 -108.90625 L 31.046875 0 Z M 8.09375 0 "/></g></g><g style="fill:#d65c5c;fill-opacity:1;"><g transform="translate(424.338326, 770.798069)"><path style="stroke:none" d="M 8.09375 0 L 8.09375 -72.90625 L 31.046875 -72.90625 L 31.046875 0 Z M 19.65625 -82.953125 C 16.050781 -82.953125 13.070312 -84.175781 10.71875 -86.625 C 8.375 -89.070312 7.203125 -92.046875 7.203125 -95.546875 C 7.203125 -99.148438 8.375 -102.148438 10.71875 -104.546875 C 13.070312 -106.953125 16.050781 -108.15625 19.65625 -108.15625 C 23.25 -108.15625 26.195312 -106.953125 28.5 -104.546875 C 30.800781 -102.148438 31.953125 -99.148438 31.953125 -95.546875 C 31.953125 -92.046875 30.800781 -89.070312 28.5 -86.625 C 26.195312 -84.175781 23.25 -82.953125 19.65625 -82.953125 Z M 19.65625 -82.953125 "/></g></g><g style="fill:#d65c5c;fill-opacity:1;"><g transform="translate(463.488333, 770.798069)"><path style="stroke:none" d="M 56.25 0 L 56.25 -41.546875 C 56.25 -45.347656 55.070312 -48.421875 52.71875 -50.765625 C 50.375 -53.117188 47.398438 -54.296875 43.796875 -54.296875 C 41.296875 -54.296875 39.09375 -53.769531 37.1875 -52.71875 C 35.289062 -51.675781 33.789062 -50.175781 32.6875 -48.21875 C 31.59375 -46.269531 31.046875 -44.046875 31.046875 -41.546875 L 22.203125 -45.90625 C 22.203125 -51.601562 23.453125 -56.597656 25.953125 -60.890625 C 28.453125 -65.191406 31.925781 -68.519531 36.375 -70.875 C 40.820312 -73.226562 45.847656 -74.40625 51.453125 -74.40625 C 56.847656 -74.40625 61.617188 -73.128906 65.765625 -70.578125 C 69.921875 -68.023438 73.195312 -64.648438 75.59375 -60.453125 C 78 -56.253906 79.203125 -51.65625 79.203125 -46.65625 L 79.203125 0 Z M 8.09375 0 L 8.09375 -72.90625 L 31.046875 -72.90625 L 31.046875 0 Z M 8.09375 0 "/></g></g><g style="fill:#d65c5c;fill-opacity:1;"><g transform="translate(549.288347, 770.798069)"><path style="stroke:none" d="M 44.09375 1.65625 C 36.195312 1.65625 29.171875 0.03125 23.015625 -3.21875 C 16.867188 -6.46875 12.046875 -10.992188 8.546875 -16.796875 C 5.046875 -22.597656 3.296875 -29.148438 3.296875 -36.453125 C 3.296875 -43.753906 5.019531 -50.28125 8.46875 -56.03125 C 11.925781 -61.78125 16.601562 -66.300781 22.5 -69.59375 C 28.394531 -72.894531 35.046875 -74.546875 42.453125 -74.546875 C 49.648438 -74.546875 56 -72.992188 61.5 -69.890625 C 67 -66.796875 71.320312 -62.5 74.46875 -57 C 77.625 -51.5 79.203125 -45.195312 79.203125 -38.09375 C 79.203125 -36.800781 79.125 -35.425781 78.96875 -33.96875 C 78.820312 -32.519531 78.550781 -30.847656 78.15625 -28.953125 L 15.296875 -28.796875 L 15.296875 -44.546875 L 68.40625 -44.703125 L 58.5 -38.09375 C 58.394531 -42.300781 57.742188 -45.78125 56.546875 -48.53125 C 55.347656 -51.28125 53.570312 -53.378906 51.21875 -54.828125 C 48.875 -56.273438 46 -57 42.59375 -57 C 39 -57 35.875 -56.171875 33.21875 -54.515625 C 30.570312 -52.867188 28.523438 -50.546875 27.078125 -47.546875 C 25.628906 -44.546875 24.90625 -40.894531 24.90625 -36.59375 C 24.90625 -32.300781 25.675781 -28.628906 27.21875 -25.578125 C 28.769531 -22.523438 30.96875 -20.171875 33.8125 -18.515625 C 36.664062 -16.867188 40.046875 -16.046875 43.953125 -16.046875 C 47.546875 -16.046875 50.789062 -16.671875 53.6875 -17.921875 C 56.59375 -19.171875 59.144531 -21.046875 61.34375 -23.546875 L 73.953125 -10.953125 C 70.347656 -6.753906 65.992188 -3.601562 60.890625 -1.5 C 55.796875 0.601562 50.195312 1.65625 44.09375 1.65625 Z M 44.09375 1.65625 "/></g></g><g style="fill:#d65c5c;fill-opacity:1;"><g transform="translate(42.098637, 318.450386)"><path style="stroke:none" d="M 28.078125 0 L 28.078125 -127.078125 L 56.15625 -127.078125 L 56.15625 0 Z M 3.59375 -103.140625 L 3.59375 -127.078125 L 54.359375 -127.078125 L 54.359375 -103.140625 Z M 3.59375 -103.140625 "/></g><g transform="translate(110.138633, 318.450386)"><path style="stroke:none" d="M 60.125 1.984375 C 49.914062 1.984375 40.671875 -0.773438 32.390625 -6.296875 C 24.117188 -11.816406 17.613281 -19.523438 12.875 -29.421875 C 8.132812 -39.328125 5.765625 -50.757812 5.765625 -63.71875 C 5.765625 -76.800781 8.101562 -88.234375 12.78125 -98.015625 C 17.457031 -107.796875 23.875 -115.414062 32.03125 -120.875 C 40.195312 -126.332031 49.441406 -129.0625 59.765625 -129.0625 C 70.203125 -129.0625 79.5 -126.332031 87.65625 -120.875 C 95.820312 -115.414062 102.273438 -107.765625 107.015625 -97.921875 C 111.753906 -88.078125 114.125 -76.617188 114.125 -63.546875 C 114.125 -50.460938 111.753906 -39 107.015625 -29.15625 C 102.273438 -19.320312 95.851562 -11.671875 87.75 -6.203125 C 79.644531 -0.742188 70.4375 1.984375 60.125 1.984375 Z M 59.9375 -23.046875 C 65.21875 -23.046875 69.773438 -24.570312 73.609375 -27.625 C 77.453125 -30.6875 80.425781 -35.25 82.53125 -41.3125 C 84.632812 -47.375 85.6875 -54.785156 85.6875 -63.546875 C 85.6875 -72.421875 84.632812 -79.859375 82.53125 -85.859375 C 80.425781 -91.859375 77.453125 -96.390625 73.609375 -99.453125 C 69.773438 -102.515625 65.160156 -104.046875 59.765625 -104.046875 C 54.597656 -104.046875 50.0625 -102.546875 46.15625 -99.546875 C 42.257812 -96.546875 39.289062 -92.046875 37.25 -86.046875 C 35.21875 -80.046875 34.203125 -72.601562 34.203125 -63.71875 C 34.203125 -54.84375 35.21875 -47.40625 37.25 -41.40625 C 39.289062 -35.40625 42.257812 -30.84375 46.15625 -27.71875 C 50.0625 -24.601562 54.65625 -23.046875 59.9375 -23.046875 Z M 59.9375 -23.046875 "/></g></g><g style="fill:#d65c5c;fill-opacity:1;"><g transform="translate(230.018635, 318.450386)"><path style="stroke:none" d="M 60.125 1.984375 C 49.914062 1.984375 40.671875 -0.773438 32.390625 -6.296875 C 24.117188 -11.816406 17.613281 -19.523438 12.875 -29.421875 C 8.132812 -39.328125 5.765625 -50.757812 5.765625 -63.71875 C 5.765625 -76.800781 8.101562 -88.234375 12.78125 -98.015625 C 17.457031 -107.796875 23.875 -115.414062 32.03125 -120.875 C 40.195312 -126.332031 49.441406 -129.0625 59.765625 -129.0625 C 70.203125 -129.0625 79.5 -126.332031 87.65625 -120.875 C 95.820312 -115.414062 102.273438 -107.765625 107.015625 -97.921875 C 111.753906 -88.078125 114.125 -76.617188 114.125 -63.546875 C 114.125 -50.460938 111.753906 -39 107.015625 -29.15625 C 102.273438 -19.320312 95.851562 -11.671875 87.75 -6.203125 C 79.644531 -0.742188 70.4375 1.984375 60.125 1.984375 Z M 59.9375 -23.046875 C 65.21875 -23.046875 69.773438 -24.570312 73.609375 -27.625 C 77.453125 -30.6875 80.425781 -35.25 82.53125 -41.3125 C 84.632812 -47.375 85.6875 -54.785156 85.6875 -63.546875 C 85.6875 -72.421875 84.632812 -79.859375 82.53125 -85.859375 C 80.425781 -91.859375 77.453125 -96.390625 73.609375 -99.453125 C 69.773438 -102.515625 65.160156 -104.046875 59.765625 -104.046875 C 54.597656 -104.046875 50.0625 -102.546875 46.15625 -99.546875 C 42.257812 -96.546875 39.289062 -92.046875 37.25 -86.046875 C 35.21875 -80.046875 34.203125 -72.601562 34.203125 -63.71875 C 34.203125 -54.84375 35.21875 -47.40625 37.25 -41.40625 C 39.289062 -35.40625 42.257812 -30.84375 46.15625 -27.71875 C 50.0625 -24.601562 54.65625 -23.046875 59.9375 -23.046875 Z M 59.9375 -23.046875 "/></g></g><g style="fill:#d65c5c;fill-opacity:1;"><g transform="translate(483.596115, 307.720946)"><path style="stroke:none" d="M 4.3125 -15.84375 L 53.09375 -66.234375 C 56.09375 -69.234375 58.492188 -71.992188 60.296875 -74.515625 C 62.097656 -77.035156 63.414062 -79.40625 64.25 -81.625 C 65.09375 -83.84375 65.515625 -86.09375 65.515625 -88.375 C 65.515625 -93.300781 63.925781 -97.171875 60.75 -99.984375 C 57.570312 -102.804688 53.398438 -104.21875 48.234375 -104.21875 C 43.203125 -104.21875 38.675781 -102.867188 34.65625 -100.171875 C 30.632812 -97.472656 26.765625 -93.0625 23.046875 -86.9375 L 4.140625 -103.3125 C 9.179688 -111.832031 15.597656 -118.253906 23.390625 -122.578125 C 31.191406 -126.898438 40.132812 -129.0625 50.21875 -129.0625 C 58.976562 -129.0625 66.566406 -127.441406 72.984375 -124.203125 C 79.410156 -120.960938 84.390625 -116.34375 87.921875 -110.34375 C 91.460938 -104.34375 93.234375 -97.320312 93.234375 -89.28125 C 93.234375 -84.238281 92.570312 -79.585938 91.25 -75.328125 C 89.9375 -71.066406 87.804688 -66.863281 84.859375 -62.71875 C 81.921875 -58.582031 77.992188 -54.054688 73.078125 -49.140625 L 39.234375 -15.484375 Z M 4.3125 0 L 4.3125 -15.84375 L 28.265625 -24.125 L 95.765625 -24.125 L 95.765625 0 Z M 4.3125 0 "/></g><g transform="translate(585.11611, 307.720946)"><path style="stroke:none" d="M 45.546875 1.984375 C 36.785156 1.984375 28.742188 0.453125 21.421875 -2.609375 C 14.097656 -5.671875 7.914062 -10.082031 2.875 -15.84375 L 21.0625 -34.015625 C 23.34375 -30.660156 26.671875 -27.929688 31.046875 -25.828125 C 35.429688 -23.734375 40.082031 -22.6875 45 -22.6875 C 49.4375 -22.6875 53.273438 -23.460938 56.515625 -25.015625 C 59.753906 -26.578125 62.300781 -28.796875 64.15625 -31.671875 C 66.019531 -34.554688 66.953125 -37.976562 66.953125 -41.9375 C 66.953125 -45.894531 66.019531 -49.285156 64.15625 -52.109375 C 62.300781 -54.929688 59.601562 -57.117188 56.0625 -58.671875 C 52.53125 -60.234375 48.300781 -61.015625 43.375 -61.015625 C 41.09375 -61.015625 38.722656 -60.863281 36.265625 -60.5625 C 33.804688 -60.269531 31.738281 -59.820312 30.0625 -59.21875 L 42.484375 -74.875 C 45.835938 -75.832031 49.046875 -76.640625 52.109375 -77.296875 C 55.171875 -77.960938 58.019531 -78.296875 60.65625 -78.296875 C 67.132812 -78.296875 72.953125 -76.765625 78.109375 -73.703125 C 83.273438 -70.648438 87.390625 -66.332031 90.453125 -60.75 C 93.515625 -55.164062 95.046875 -48.535156 95.046875 -40.859375 C 95.046875 -32.460938 92.972656 -25.019531 88.828125 -18.53125 C 84.691406 -12.050781 78.929688 -7.007812 71.546875 -3.40625 C 64.171875 0.1875 55.503906 1.984375 45.546875 1.984375 Z M 30.0625 -59.21875 L 30.0625 -74.875 L 61.015625 -111.234375 L 92.703125 -111.421875 L 60.484375 -74.703125 Z M 10.796875 -103.140625 L 10.796875 -127.078125 L 92.703125 -127.078125 L 92.703125 -111.421875 L 70.5625 -103.140625 Z M 10.796875 -103.140625 "/></g></g><g style="fill:#d65c5c;fill-opacity:1;"><g transform="translate(683.03609, 307.720946)"><path style="stroke:none" d="M 20.515625 0 L 63.71875 -111.234375 L 91.265625 -111.234375 L 49.6875 0 Z M 3.59375 -103.140625 L 3.59375 -127.078125 L 91.265625 -127.078125 L 91.265625 -111.234375 L 81.90625 -103.140625 Z M 3.59375 -103.140625 "/></g></g><path style=" stroke:none;fill-rule:nonzero;fill:#d65c5c;fill-opacity:1;" d="M 181.023438 116.332031 C 182.660156 108.957031 185.511719 101.667969 187.820312 94.785156 C 192.710938 80.199219 198.082031 65.761719 204.710938 51.867188 C 214.09375 32.226562 245.222656 47.871094 238.652344 67.589844 C 236.558594 73.855469 234.101562 80.019531 231.480469 86.136719 C 354.59375 -0.0234375 540.453125 1.4375 649.738281 109.269531 C 656.535156 115.976562 647.117188 126.53125 639.363281 121.789062 C 577.558594 84.042969 508.089844 57.832031 434.929688 58.335938 C 367.425781 58.800781 305.398438 82.074219 250.691406 119.558594 C 267.324219 122.40625 283.8125 126.027344 300 130.578125 C 308.863281 133.074219 309.089844 148.101562 299.347656 149.414062 C 263.753906 154.230469 227.609375 155.085938 191.765625 152.515625 C 170.003906 150.964844 169.195312 126 181.023438 116.332031 Z M 181.023438 116.332031 "/></g></svg>